<svg width="70" height="20" viewBox="0 0 70 20" fill="none" xmlns="http://www.w3.org/2000/svg">
<rect width="10" height="10" transform="matrix(-1 0 0 1 50 10)" fill="#D9D9D9"/>
<rect width="10" height="10" transform="matrix(-1 0 0 1 50 10)" fill="#D9D9D9"/>
<rect width="10" height="10" transform="matrix(-1 0 0 1 40 10)" fill="#D9D9D9"/>
<rect width="10" height="10" transform="matrix(-1 0 0 1 30 10)" fill="#D9D9D9"/>
<rect width="10" height="10" transform="matrix(-1 0 0 1 40 0)" fill="#D9D9D9"/>
<rect width="10" height="10" transform="matrix(-1 0 0 1 50 0)" fill="#D9D9D9"/>
<rect width="10" height="10" transform="matrix(-1 0 0 1 60 10)" fill="#D9D9D9"/>
<rect width="10" height="10" transform="matrix(-1 0 0 1 70 10)" fill="#D9D9D9"/>
<rect width="10" height="10" transform="matrix(-1 0 0 1 30 0)" fill="#D9D9D9"/>
<rect width="10" height="10" transform="matrix(-1 0 0 1 22 0)" fill="#D9D9D9"/>
<rect width="10" height="10" transform="matrix(-1 0 0 1 20 10)" fill="#D9D9D9"/>
<rect width="10" height="10" transform="matrix(-1 0 0 1 10 10)" fill="#D9D9D9"/>
</svg>
