<svg width="69" height="30" viewBox="0 0 69 30" fill="none" xmlns="http://www.w3.org/2000/svg">
<rect x="19" y="20" width="10" height="10" fill="#D9D9D9"/>
<rect x="19" y="20" width="10" height="10" fill="#D9D9D9"/>
<rect x="29" y="20" width="10" height="10" fill="#D9D9D9"/>
<rect x="39" y="20" width="10" height="10" fill="#D9D9D9"/>
<rect x="29" y="10" width="10" height="10" fill="#D9D9D9"/>
<rect x="19" y="10" width="10" height="10" fill="#D9D9D9"/>
<rect x="9" y="10" width="10" height="10" fill="#D9D9D9"/>
<rect x="39" y="10" width="10" height="10" fill="#D9D9D9"/>
<rect x="48" y="10" width="10" height="10" fill="#D9D9D9"/>
<rect x="39" width="10" height="10" fill="#D9D9D9"/>
<rect x="19" width="10" height="10" fill="#D9D9D9"/>
<rect x="29" width="10" height="10" fill="#D9D9D9"/>
<rect x="9" width="10" height="10" fill="#D9D9D9"/>
<rect width="10" height="10" fill="#D9D9D9"/>
<rect x="49" y="20" width="10" height="10" fill="#D9D9D9"/>
<rect x="59" y="20" width="10" height="10" fill="#D9D9D9"/>
</svg>
