<svg width="30" height="109" viewBox="0 0 30 109" fill="none" xmlns="http://www.w3.org/2000/svg">
<rect x="20" y="50" width="10" height="10" fill="#D9D9D9"/>
<rect x="20" y="40" width="10" height="10" fill="#D9D9D9"/>
<rect x="10" y="40" width="10" height="10" fill="#D9D9D9"/>
<rect x="10" y="30" width="10" height="10" fill="#D9D9D9"/>
<rect y="30" width="10" height="10" fill="#D9D9D9"/>
<rect y="20" width="10" height="10" fill="#D9D9D9"/>
<rect y="10" width="10" height="10" fill="#D9D9D9"/>
<rect x="10" y="20" width="10" height="10" fill="#D9D9D9"/>
<rect x="10" y="80" width="10" height="10" fill="#D9D9D9"/>
<rect x="20" y="30" width="10" height="10" fill="#D9D9D9"/>
<rect width="10" height="10" transform="matrix(-1 0 0 1 20 70)" fill="#D9D9D9"/>
<rect width="10" height="10" transform="matrix(-1 0 0 1 30 60)" fill="#D9D9D9"/>
<rect width="10" height="10" transform="matrix(-1 0 0 1 30 70)" fill="#D9D9D9"/>
<rect width="10" height="10" transform="matrix(-1 0 0 1 10 70)" fill="#D9D9D9"/>
<rect width="10" height="10" transform="matrix(-1 0 0 1 10 80)" fill="#D9D9D9"/>
<rect width="10" height="10" transform="matrix(-1 0 0 1 10 90)" fill="#D9D9D9"/>
<rect width="10" height="10" transform="matrix(-1 0 0 1 10 99)" fill="#D9D9D9"/>
<rect width="10" height="10" transform="matrix(-1 0 0 1 20 90)" fill="#D9D9D9"/>
<rect width="10" height="10" transform="matrix(-1 0 0 1 20 10)" fill="#D9D9D9"/>
<rect width="10" height="10" transform="matrix(-1 0 0 1 10 0)" fill="#D9D9D9"/>
<rect width="10" height="10" transform="matrix(-1 0 0 1 20 60)" fill="#D9D9D9"/>
</svg>
