<svg width="30" height="60" viewBox="0 0 30 60" fill="none" xmlns="http://www.w3.org/2000/svg">
<rect x="20" y="30" width="10" height="10" fill="#D9D9D9"/>
<rect x="20" y="20" width="10" height="10" fill="#D9D9D9"/>
<rect x="10" y="20" width="10" height="10" fill="#D9D9D9"/>
<rect x="10" y="10" width="10" height="10" fill="#D9D9D9"/>
<rect y="10" width="10" height="10" fill="#D9D9D9"/>
<rect width="10" height="10" fill="#D9D9D9"/>
<rect x="20" y="10" width="10" height="10" fill="#D9D9D9"/>
<rect x="10" width="10" height="10" fill="#D9D9D9"/>
<rect x="10" width="10" height="10" fill="#D9D9D9"/>
<rect width="10" height="10" transform="matrix(-1 0 0 1 20 50)" fill="#D9D9D9"/>
<rect width="10" height="10" transform="matrix(-1 0 0 1 30 40)" fill="#D9D9D9"/>
<rect width="10" height="10" transform="matrix(-1 0 0 1 10 50)" fill="#D9D9D9"/>
<rect width="10" height="10" transform="matrix(-1 0 0 1 20 40)" fill="#D9D9D9"/>
</svg>
