<svg width="30" height="50" viewBox="0 0 30 50" fill="none" xmlns="http://www.w3.org/2000/svg">
<rect width="10" height="10" transform="matrix(1 0 0 -1 0 40)" fill="#D9D9D9"/>
<rect width="10" height="10" transform="matrix(1 0 0 -1 10 40)" fill="#D9D9D9"/>
<rect width="10" height="10" transform="matrix(1 0 0 -1 10 50)" fill="#D9D9D9"/>
<rect width="10" height="10" transform="matrix(1 0 0 -1 20 30)" fill="#D9D9D9"/>
<rect width="10" height="10" transform="matrix(1 0 0 -1 20 20)" fill="#D9D9D9"/>
<rect width="10" height="10" transform="matrix(1 0 0 -1 0 50)" fill="#D9D9D9"/>
<rect width="10" height="10" transform="matrix(1 0 0 -1 0 10)" fill="#D9D9D9"/>
<rect width="10" height="10" transform="matrix(1 0 0 -1 0 30)" fill="#D9D9D9"/>
<rect width="10" height="10" transform="matrix(1 0 0 -1 0 20)" fill="#D9D9D9"/>
<rect width="10" height="10" transform="matrix(1 0 0 -1 10 30)" fill="#D9D9D9"/>
<rect width="10" height="10" transform="matrix(1 0 0 -1 10 20)" fill="#D9D9D9"/>
</svg>
